<svg version="1.1" id="Layer_1" xmlns="http://www.w3.org/2000/svg" xmlns:xlink="http://www.w3.org/1999/xlink" x="0px" y="0px"
	 width="100%" viewBox="0 0 500 500" enable-background="new 0 0 500 500" xml:space="preserve">
<path fill="#000000" opacity="1.000000" stroke="none" 
	d="
M234.000000,501.000000 
	C156.000015,501.000000 78.500038,501.000000 1.000041,501.000000 
	C1.000028,334.333405 1.000028,167.666779 1.000014,1.000131 
	C167.666565,1.000087 334.333130,1.000087 500.999756,1.000044 
	C500.999847,167.666519 500.999847,334.333038 500.999939,500.999786 
	C412.166656,501.000000 323.333344,501.000000 234.000000,501.000000 
M185.194702,139.004654 
	C176.196976,144.123596 167.311752,149.457962 158.141922,154.247391 
	C154.824783,155.979965 153.904312,157.895203 153.915817,161.480270 
	C154.048508,202.809799 153.983765,244.139938 154.007599,285.469879 
	C154.019028,305.297974 154.107071,325.126038 154.263184,345.650024 
	C161.034195,349.494812 168.272766,352.715729 174.453705,357.347900 
	C181.610199,362.711182 187.241867,363.077423 195.267288,358.196075 
	C219.949890,343.183289 245.324646,329.311859 270.357025,314.869659 
	C295.250854,300.507324 320.027618,285.941833 344.945129,271.621033 
	C347.337616,270.246002 348.116180,268.841034 348.077301,266.214325 
	C347.936859,256.722748 347.680481,247.210236 348.167969,237.741684 
	C348.407745,233.084335 346.283905,231.114868 342.734436,229.204529 
	C335.026978,225.056305 327.439240,220.681641 319.858276,216.303131 
	C303.570038,206.895615 287.325928,197.411713 271.046936,187.988113 
	C256.452271,179.539551 241.848526,171.106491 227.223969,162.709808 
	C213.464172,154.809616 199.671936,146.965912 185.194702,139.004654 
z"/>
<path fill="#4593FF" opacity="1.000000" stroke="none" 
	d="
M185.893982,139.097336 
	C199.671936,146.965912 213.464172,154.809616 227.223969,162.709808 
	C241.848526,171.106491 256.452271,179.539551 271.046936,187.988113 
	C287.325928,197.411713 303.570038,206.895615 319.858276,216.303131 
	C327.439240,220.681641 335.026978,225.056305 342.734436,229.204529 
	C346.283905,231.114868 348.407745,233.084335 348.167969,237.741684 
	C347.680481,247.210236 347.936859,256.722748 348.077301,266.214325 
	C348.116180,268.841034 347.337616,270.246002 344.945129,271.621033 
	C320.027618,285.941833 295.250854,300.507324 270.357025,314.869659 
	C245.324646,329.311859 219.949890,343.183289 195.267288,358.196075 
	C187.241867,363.077423 181.610199,362.711182 174.453705,357.347900 
	C168.272766,352.715729 161.034195,349.494812 154.502319,345.145782 
	C197.724533,319.590393 240.707581,294.539215 284.410889,269.068298 
	C281.325165,267.214752 279.133057,265.805511 276.857269,264.547607 
	C268.588531,259.977173 260.291779,255.457443 251.876465,250.593323 
	C240.426346,243.777267 229.105331,237.286514 217.068436,230.385315 
	C217.068436,244.488052 217.068436,257.708099 216.760117,271.100342 
	C206.596283,276.913086 196.740784,282.553650 185.682541,288.882568 
	C185.682541,285.470917 185.682541,283.384888 185.682541,281.298828 
	C185.682526,243.541550 185.668518,205.784256 185.692184,168.026993 
	C185.698227,158.383743 185.823502,148.740555 185.893982,139.097336 
z"/>
<path fill="#004AAD" opacity="1.000000" stroke="none" 
	d="
M252.005569,250.918610 
	C260.291779,255.457443 268.588531,259.977173 276.857269,264.547607 
	C279.133057,265.805511 281.325165,267.214752 284.410889,269.068298 
	C240.707581,294.539215 197.724533,319.590393 154.450943,344.797821 
	C154.107071,325.126038 154.019028,305.297974 154.007599,285.469879 
	C153.983765,244.139938 154.048508,202.809799 153.915817,161.480270 
	C153.904312,157.895203 154.824783,155.979965 158.141922,154.247391 
	C167.311752,149.457962 176.196976,144.123596 185.544342,139.050995 
	C185.823502,148.740555 185.698227,158.383743 185.692184,168.026993 
	C185.668518,205.784256 185.682526,243.541550 185.682541,281.298828 
	C185.682541,283.384888 185.682541,285.470917 185.682541,288.882568 
	C196.740784,282.553650 206.596283,276.913086 217.085999,270.995605 
	C229.148651,264.118683 240.577118,257.518646 252.005569,250.918610 
z"/>
<path fill="#000000" opacity="1.000000" stroke="none" 
	d="
M251.876465,250.593323 
	C240.577118,257.518646 229.148651,264.118683 217.394318,270.823425 
	C217.068436,257.708099 217.068436,244.488052 217.068436,230.385315 
	C229.105331,237.286514 240.426346,243.777267 251.876465,250.593323 
z"/>
</svg>