<?xml version="1.0" encoding="utf-8"?>
<!-- Generator: Adobe Illustrator 19.2.1, SVG Export Plug-In . SVG Version: 6.00 Build 0)  -->
<svg version="1.1" id="layer" xmlns="http://www.w3.org/2000/svg" xmlns:xlink="http://www.w3.org/1999/xlink" x="0px" y="0px"
	 viewBox="0 0 652 652" style="enable-background:new 0 0 652 652;" xml:space="preserve">
<style type="text/css">
	.st0{fill:#633C20;}
	.st1{fill:#93725C;}
	.st2{fill:#C2AC9E;}
	.st3{fill:#E1D5CD;}
</style>
<g>
	<path class="st0" d="M264.4,380.2c5.6,0,8-4.7,8-9.5c0-4.9-2.6-9.6-8-9.5c-5.4,0-8.1,4.6-8.1,9.5
		C256.4,375.5,258.8,380.2,264.4,380.2 M266.4,383.1c-0.6,0.1-1.3,0.1-1.9,0.1c-7.5,0-11.7-5.2-11.7-12.6c0-7.2,4.3-12.6,11.7-12.6
		c7.4,0,11.7,5.4,11.7,12.6c0,5.5-2.3,9.7-6.6,11.5l5.7,5.1h-4.3L266.4,383.1z"/>
	<path class="st0" d="M294,361.8l-4.8,12.1h9.7L294,361.8z M292.3,358.5h3.7l10.3,24.4h-3.8l-2.5-6.2H288l-2.5,6.2h-3.7L292.3,358.5
		z"/>
	<polygon class="st0" points="315.6,361.6 308,361.6 308,358.5 326.6,358.5 326.6,361.6 319,361.6 319,382.8 315.6,382.8 	"/>
	<path class="st0" d="M341.1,361.8l-4.8,12.1h9.7L341.1,361.8z M339.4,358.5h3.7l10.3,24.4h-3.8l-2.5-6.2h-11.9l-2.5,6.2H329
		L339.4,358.5z"/>
	<path class="st0" d="M363.7,369h3c3.3,0,5.3-1.5,5.3-3.8c0-2.2-1.7-3.6-4.9-3.6h-3.4V369z M360.2,358.5h6c4.8,0,9.5,0.8,9.5,6.6
		c0,3-2.2,5-5.1,5.5v0.1c1.1,0.4,1.6,0.9,2.4,2.4l4.6,9.7h-4l-3.7-8.5c-1.1-2.4-2.2-2.4-4.1-2.4h-2.1v10.8h-3.5V358.5z"/>
	<path class="st0" d="M417.4,372.8c0,6.8-3.5,10.5-9.5,10.5c-6,0-9.5-3.7-9.5-10.5v-14.3h3.5v13.8c0,4.7,1.4,7.9,6,7.9
		c4.5,0,6-3.2,6-7.9v-13.8h3.5V372.8z"/>
	<polygon class="st0" points="427.1,358.5 431.8,358.5 442.6,378.1 442.7,378.1 442.7,358.5 446.1,358.5 446.1,382.8 441.7,382.8 
		430.7,362.8 430.6,362.8 430.6,382.8 427.1,382.8 	"/>
	<rect x="455.8" y="358.5" class="st0" width="3.5" height="24.4"/>
	<polygon class="st0" points="479.7,382.8 475.3,382.8 466.2,358.5 470,358.5 477.5,379.8 477.6,379.8 485.3,358.5 489,358.5 	"/>
	<polygon class="st0" points="496,358.5 509.6,358.5 509.6,361.6 499.5,361.6 499.5,368.7 508.7,368.7 508.7,371.7 499.5,371.7 
		499.5,379.8 509.6,379.8 509.6,382.8 496,382.8 	"/>
	<path class="st0" d="M522,369h3c3.3,0,5.3-1.5,5.3-3.8c0-2.2-1.7-3.6-4.9-3.6H522V369z M518.5,358.5h6c4.8,0,9.5,0.8,9.5,6.6
		c0,3-2.2,5-5,5.5v0.1c1.1,0.4,1.6,0.9,2.4,2.4l4.6,9.7h-4l-3.7-8.5c-1.1-2.4-2.2-2.4-4.1-2.4H522v10.8h-3.5V358.5z"/>
	<path class="st0" d="M554.6,362.2c-1.8-0.7-2.8-1-4.5-1c-2,0-4.3,0.7-4.3,3.2c0,4.7,10.5,3.6,10.5,11.6c0,5.2-4,7.2-8.9,7.2
		c-1.7,0-3.4-0.5-5-1l0.3-3.2c1.2,0.5,3.3,1.2,5,1.2c2,0,4.8-1.1,4.8-4c0-5.4-10.5-3.9-10.5-11.5c0-4.3,3.4-6.6,7.8-6.6
		c1.6,0,3.5,0.3,5.2,0.9L554.6,362.2z"/>
	<rect x="564.5" y="358.5" class="st0" width="3.5" height="24.4"/>
	<polygon class="st0" points="582.6,361.6 575,361.6 575,358.5 593.6,358.5 593.6,361.6 586,361.6 586,382.8 582.6,382.8 	"/>
	<polygon class="st0" points="607.4,372.7 597.9,358.5 602,358.5 609.2,369.4 616.3,358.5 620.4,358.5 610.9,372.7 610.9,382.8 
		607.4,382.8 	"/>
	<path class="st0" d="M423,297.1c1,0,1.9-0.4,2.7-1.1c0.8-0.7,1.2-1.6,1.2-2.6c0-1-0.4-1.9-1.2-2.6c-0.8-0.7-1.7-1.1-2.7-1.1
		c-1.1,0-2,0.3-2.8,1c-0.8,0.7-1.2,1.6-1.2,2.6c0,1,0.4,1.9,1.2,2.6C421,296.7,421.9,297.1,423,297.1"/>
	<path class="st0" d="M431.8,297.1c1,0,1.9-0.4,2.7-1.1c0.8-0.7,1.2-1.6,1.2-2.6c0-1-0.4-1.9-1.2-2.6c-0.8-0.7-1.7-1.1-2.7-1.1
		c-1.1,0-2,0.3-2.8,1c-0.8,0.7-1.2,1.6-1.2,2.6c0,1,0.4,1.9,1.2,2.6C429.8,296.7,430.7,297.1,431.8,297.1"/>
	<path class="st0" d="M537,327.2c-2.4,2.3-5.4,3.5-8.9,3.5c-3.5,0-6.5-1.2-9-3.5c-2.5-2.3-3.7-5.2-3.7-8.6c0-3.5,1.2-6.4,3.7-8.7
		c2.4-2.3,5.4-3.5,9-3.5c3.5,0,6.5,1.1,8.9,3.5c2.4,2.4,3.6,5.3,3.6,8.7C540.7,322,539.5,324.9,537,327.2 M473.7,330.2
		c-3.5,0-6.5-1.2-8.9-3.5c-2.4-2.3-3.7-5.2-3.7-8.6c0-3.5,1.2-6.4,3.7-8.7c2.5-2.3,5.4-3.5,8.9-3.5c3.6,0,6.5,1.2,8.9,3.5
		c2.4,2.3,3.6,5.2,3.6,8.7c0,3.4-1.2,6.3-3.7,8.6C480.2,329.1,477.2,330.2,473.7,330.2 M540.4,305.8c-3.3-3.3-7.4-5-12.3-5
		c-4.9,0-9,1.7-12.3,5c-3.3,3.3-5,7.4-5,12.3c0,5.1,1.5,9.1,4.5,12.3h-29.9c3.6-3.4,5.4-7.6,5.4-12.5c0-4.9-1.7-9-4.9-12.3
		c-3.3-3.3-7.4-4.9-12.2-4.9c-4.9,0-9,1.6-12.3,4.9c-3.3,3.3-4.9,7.4-4.9,12.3c0,5,1.8,9.1,5.3,12.5h-20.4v-28.6h-17
		c-4.5,0-8,2.6-10.7,6c-2.5,3.1-3.8,6.8-3.8,11.4c0,4.3,1.1,7.9,4,11.3c1,1.2,2.2,2,3.5,2.8c0.9,0.6,1.5,0.8,2.7,1.2
		c1.2,0.5,4.3,0.9,5.5,0.9h8v-4.6c-6.4,0-10.7-0.5-13-1.4c-4.1-1.7-6.1-5.3-6.1-10.9c0-3,0.9-5.7,2.7-8c2-2.6,4.4-3.9,7.3-3.9h12
		v28.6h87c2.6,0.7,5.3,0.8,7.9,0.3c4.1-0.7,7.4-2.8,10.1-6.2c2.5-3.3,3.8-7,3.8-11.2C545.4,313.2,543.7,309.1,540.4,305.8"/>
	<path class="st0" d="M590.3,340.4c-1.1,0-2,0.4-2.7,1.1c-0.8,0.7-1.2,1.6-1.2,2.6c0,1.1,0.4,1.9,1.2,2.7c0.8,0.7,1.7,1.1,2.7,1.1
		c1,0,2-0.4,2.7-1.1c0.8-0.7,1.2-1.6,1.2-2.7c0-1.1-0.4-1.9-1.2-2.6C592.2,340.7,591.3,340.4,590.3,340.4"/>
	<path class="st0" d="M570,330.3c-2.2,0-3.9-0.2-5-0.6c-1.6-0.5-3.3-1.4-4.8-2.8c-1.4-1.6-2.3-3.2-2.8-4.8c-0.3-1.2-0.6-2.8-0.6-5
		v-28.6H552v30.3c0.1,2.6,0.4,4.2,0.7,5c0.8,2.5,2.1,4.7,4,6.6c1.9,1.9,4.1,3.2,6.6,4c0.8,0.2,2.4,0.6,5,0.7h52.1v-4.7l-34.1-28.4
		l-3.3,3.3l29.7,25.1H570z"/>
	<path class="st0" d="M367.1,296.8c1.1,0,2-0.3,2.8-1c0.8-0.7,1.1-1.5,1.1-2.6c0-1-0.4-1.9-1.1-2.6c-0.8-0.7-1.7-1-2.8-1
		c-1.1,0-2,0.3-2.7,1c-0.8,0.7-1.2,1.6-1.2,2.6c0,1.1,0.4,1.9,1.2,2.6C365.2,296.5,366.1,296.8,367.1,296.8"/>
	<path class="st0" d="M357.9,296.8c1.1,0,2-0.3,2.7-1c0.8-0.7,1.2-1.5,1.2-2.6c0-1-0.4-1.9-1.2-2.6c-0.7-0.7-1.6-1-2.7-1
		c-1,0-2,0.3-2.7,1c-0.8,0.7-1.2,1.6-1.2,2.6c0,1.1,0.4,1.9,1.2,2.6C355.9,296.5,356.9,296.8,357.9,296.8"/>
	<path class="st0" d="M372.3,322.9c0,2.4,0,4.8,0,7.2h-12.4c-2.8-0.3-4.9-0.6-7.1-2.4c-2.9-2.3-4.8-6.1-4.7-9.8
		c0.1-2.8,1-5.7,2.9-7.9c4.7-5.6,15.3-5.2,19.9,0.3c1.4,1.6,1.6,3.6,1.5,5.7C372.3,318.3,372.3,320.6,372.3,322.9 M324.5,327.2
		c-3.7,2.9-8.7,3-13.2,3c-5.6,0-11.3,0-16.9,0v-13.4c2.3-2.2,5.1-4.3,8.5-6.3c6.1-3.5,14.4-5.3,21-1.4
		C330.4,312.8,330,322.9,324.5,327.2 M374.2,307.2c-2.4-2.7-5.7-4.7-9.2-5.4c-7.1-1.4-15.7,1.5-19.3,7.7c-3.3,5.6-3.3,13,0.5,18.3
		c0.3,0.5,1.7,2.5,2.2,2.5h-0.1v0h-20.3c0.6,0,1.9-1.9,2.2-2.3c4.8-6.1,4.2-16.4-1.9-21.5c0,0-0.1,0-0.1-0.1c-3.5-2.8-7.6-3.8-12-4
		c-6.1-0.3-11.8,1.5-16.9,4.8c-1.7,1.1-3.4,2.3-5.1,3.5v-22.2h-4.7v41.7h-22.2v-18.4h-4.7v17.2c0,3-1.1,5.7-3.2,7.8
		c-2.1,2.1-4.8,3.1-7.8,2.9v5.3c3.1,0,6-0.9,8.6-2.8c2.6-1.9,4.5-4.2,5.7-7.2h82.2H377v-17.5C377,313.7,376.8,310.2,374.2,307.2"/>
	<polygon class="st1" points="38.2,299.9 43.7,279.4 43.7,361.1 38.2,366.3 	"/>
	<polygon class="st1" points="118.8,348.9 118.8,361.1 134.9,344.1 	"/>
	<polygon class="st2" points="98,382.9 164.7,382.9 134.9,344.1 	"/>
	<polygon class="st2" points="152.9,343.4 152.9,272.5 148.1,270.8 148.1,272.1 151.6,273.4 151.6,343.1 	"/>
	<polygon class="st2" points="160.5,345.2 160.5,275.2 155.6,273.5 155.6,274.8 159.4,276.1 159.4,345 	"/>
	<polygon class="st2" points="168,347 168,277.8 163.2,276.1 163.2,277.4 166.7,278.7 166.7,346.7 	"/>
	<polygon class="st2" points="175.5,348.7 175.5,280.5 170.7,278.8 170.7,280.1 174.3,281.4 174.3,348.5 	"/>
	<polygon class="st2" points="183,350.5 183,283.1 178.2,281.4 178.2,282.7 181.7,284 181.7,350.2 	"/>
	<polygon class="st2" points="190.5,352.2 190.5,285.8 185.6,284.1 185.6,285.3 189.3,286.6 189.3,351.9 	"/>
	<polygon class="st2" points="145.4,341.7 145.4,269.9 140.5,268.2 140.5,269.4 144.1,270.7 144.1,341.4 	"/>
	<polygon class="st3" points="220.4,382.9 196.2,358.4 134.9,344.1 164.7,382.9 	"/>
	<path class="st0" d="M66.4,346.4h-5.1c0.9,0.8,1.9,1.5,3,2.2C65,347.8,65.8,347,66.4,346.4"/>
	<path class="st0" d="M88.1,346.2v7c-0.8,0.1-1.6,0.3-2.4,0.4c-1.2-1.2-3-3-3.6-3.6c-0.6,0.6-2.4,2.4-3.6,3.6
		c1.2,0.1,2.3,0.2,3.6,0.2c4.9,0,9.5-1.1,13.7-3v-4.6H88.1z"/>
	<path class="st0" d="M67.3,345.1v-9.4h-9.4v7.4c-0.4-0.5-0.9-1-1.3-1.5c1.4,1.8,3,3.4,4.8,4.8c-0.5-0.4-1-0.8-1.5-1.3H67.3z"/>
	<path class="st0" d="M76.2,346.3h-7.5v4.6c3.1,1.4,6.4,2.3,9.8,2.7c-0.8-0.1-1.5-0.2-2.3-0.3V346.3z"/>
	<path class="st0" d="M67.4,347.3l-2,2c1,0.6,2.1,1.2,3.2,1.7c-0.4-0.2-0.9-0.4-1.3-0.6V347.3z"/>
	<path class="st0" d="M56.6,326.8h-6.7c-0.1-0.8-0.3-1.7-0.3-2.6c1.2-1.2,2.9-2.9,3.4-3.4c-0.5-0.5-2.1-2.1-3.3-3.3
		c0.1-0.5,0.1-1.1,0.2-1.6l4.2,4.2h7.1l-4.1-4.2h-7.2c0.1-0.4,0.1-0.9,0.2-1.3h6.6v-7.6h-4.1c-2,4.2-3.2,9-3.2,14
		c0,4.7,1,9.2,2.8,13.2h4.4V326.8z"/>
	<path class="st0" d="M55.6,305.9l-1.6-1.6c-0.6,0.9-1.1,1.9-1.5,2.9c0.2-0.4,0.4-0.9,0.6-1.3H55.6z"/>
	<path class="st0" d="M52.8,335.7c0.3,0.6,0.6,1.2,1,1.8l1.8-1.8H52.8z"/>
	<path class="st0" d="M54.4,338.6c0.7,1,1.4,2,2.1,3v-5.1C55.9,337,55.1,337.8,54.4,338.6"/>
	<path class="st0" d="M105.6,307.3h-7.7c1.3,1.2,3.3,3.2,3.8,3.8C102.3,310.6,104.3,308.6,105.6,307.3"/>
	<path class="st0" d="M88.2,324.7c1.2-1.2,3.2-3.3,3.8-3.8c-0.6-0.6-2.6-2.6-3.8-3.8V324.7z"/>
	<polygon class="st0" points="101.2,312.4 97,308.2 97,315.1 101.2,319.3 	"/>
	<path class="st0" d="M99.9,348.4c-0.4,0.2-0.7,0.5-1.1,0.7l-1.9-1.9v2.9c2.1-1.1,4-2.3,5.8-3.8h-4.8
		C98.5,347,99.2,347.8,99.9,348.4"/>
	<rect x="88.2" y="307.1" class="st0" width="7.6" height="7.6"/>
	<polygon class="st0" points="93.1,320.2 100.2,320.2 96.1,316 88.9,316 	"/>
	<path class="st0" d="M96.9,335.7v9.2h0v0.2h7.2c-0.5,0.4-1,0.9-1.5,1.3c1.3-1.1,2.6-2.3,3.7-3.5v-7.1H96.9z"/>
	<path class="st0" d="M107.7,341.3c-0.4,0.5-0.8,1-1.3,1.5c1.2-1.4,2.3-2.8,3.3-4.4c-0.7-0.7-1.4-1.5-2-2V341.3z"/>
	<path class="st0" d="M56.6,305v-4.3c-0.9,1.1-1.7,2.3-2.5,3.6c0.2-0.4,0.5-0.7,0.7-1.1C55.4,303.8,56,304.5,56.6,305"/>
	<polygon class="st0" points="102.4,319.2 106.5,315.2 106.5,308.2 102.4,312.3 	"/>
	<path class="st0" d="M82.1,291.4c0.4-0.4,1.7-1.7,2.8-2.8c-1-0.1-1.9-0.1-2.9-0.1c-1.5,0-2.9,0.1-4.3,0.3c0.5-0.1,1.1-0.1,1.6-0.2
		C80.4,289.7,81.7,291,82.1,291.4"/>
	<path class="st0" d="M60.6,296.6c0.5-0.4,1-0.9,1.6-1.3C61.6,295.7,61.1,296.1,60.6,296.6"/>
	<path class="st0" d="M67.4,292c0.4-0.2,0.8-0.4,1.2-0.6C68.2,291.6,67.8,291.8,67.4,292"/>
	<path class="st0" d="M52.8,335.7c-0.2-0.4-0.4-0.8-0.6-1.3C52.4,334.8,52.6,335.3,52.8,335.7"/>
	<path class="st0" d="M107.5,316l-4.2,4.2h7.1l4-4c0.1,0.5,0.1,1.1,0.2,1.6c-1.2,1.2-2.6,2.6-3.1,3.1c0.5,0.5,1.9,1.9,3.1,3.1
		c-0.1,0.9-0.2,1.8-0.3,2.6h-6.6v7.6h4.3c-0.2,0.4-0.4,0.9-0.6,1.3c2.1-4.3,3.3-9.2,3.3-14.3c0-2-0.2-4-0.5-5.9
		c0,0.2,0.1,0.5,0.1,0.7H107.5z"/>
	<path class="st0" d="M86.9,288.9c0.4,0.1,0.8,0.1,1.2,0.2C87.7,289,87.3,288.9,86.9,288.9"/>
	<path class="st0" d="M109.4,303.3c0.2,0.4,0.5,0.7,0.7,1.1C109.8,304,109.6,303.7,109.4,303.3"/>
	<path class="st0" d="M110.4,337.4c-0.2,0.4-0.4,0.7-0.7,1.1C109.9,338.1,110.2,337.7,110.4,337.4"/>
	<path class="st0" d="M97,350.2c-0.4,0.2-0.8,0.4-1.3,0.6C96.1,350.6,96.5,350.4,97,350.2"/>
	<path class="st0" d="M54.4,338.6c-0.2-0.4-0.5-0.7-0.7-1.1C54,337.8,54.2,338.2,54.4,338.6"/>
	<path class="st0" d="M65.4,349.3c-0.4-0.2-0.7-0.5-1.1-0.7C64.7,348.8,65,349,65.4,349.3"/>
	<path class="st0" d="M91.8,301.1c0.6,0.6,2.6,2.6,3.8,3.8v-7.7C94.4,298.5,92.4,300.6,91.8,301.1"/>
	<path class="st0" d="M67.3,294.3L67.3,294.3L67.3,294.3l0.1-2.3c-0.9,0.5-1.8,1-2.7,1.5c0.4-0.2,0.7-0.5,1.1-0.7L67.3,294.3z"/>
	<path class="st0" d="M57.8,305.9L57.8,305.9l0,0.2h9.4v-9.5h-6.7c-1.5,1.3-2.8,2.7-4,4.2c0.4-0.5,0.8-1,1.3-1.5V305.9z"/>
	<path class="st0" d="M76.2,295.2V289c0.4-0.1,0.8-0.1,1.3-0.2v6.6l4.1,4.1v-6.9l-3.9-3.9c-3.2,0.4-6.2,1.3-9,2.6v3.9H76.2z"/>
	<path class="st0" d="M64.7,293.5c-0.9,0.6-1.7,1.1-2.6,1.8h4.3C65.9,294.8,65.3,294.1,64.7,293.5"/>
	<path class="st0" d="M95.7,295.3v-3.8c0.4,0.2,0.8,0.4,1.3,0.6v2.3l1.5-1.5c0.4,0.2,0.8,0.4,1.1,0.7c-0.6,0.6-1.2,1.2-1.7,1.7h4
		c-4-3.1-8.7-5.2-13.8-6.2v6.2H95.7z"/>
	<path class="st0" d="M97,296.6v9.3h0v0.2h9.4v-6.6c0.4,0.5,0.9,1,1.3,1.5c-1.7-2.1-3.6-4-5.8-5.7c0.5,0.4,1,0.8,1.6,1.3H97z"/>
	<path class="st0" d="M82.8,292.5v6.9l4-4v-6.6c-0.6-0.1-1.3-0.2-1.9-0.2c0.5,0,1.1,0.1,1.6,0.2L82.8,292.5z"/>
	<path class="st0" d="M109.4,303.3c-0.5-0.8-1.1-1.6-1.7-2.3v4C108.2,304.5,108.8,303.9,109.4,303.3"/>
	<path class="st0" d="M110.9,305.9c0.2,0.4,0.4,0.8,0.6,1.3h-3.8v7.6h6.3c-0.7-3.7-2.1-7.2-4-10.3l-1.5,1.5H110.9z"/>
	<polygon class="st0" points="94.6,296.6 87.6,296.6 83.7,300.4 90.8,300.4 	"/>
	<polygon class="st0" points="77.5,352.8 81.5,348.8 81.5,341.7 77.5,345.7 	"/>
	<polygon class="st0" points="77.5,334.6 81.5,338.7 81.5,331.8 77.5,327.7 	"/>
	<polygon class="st0" points="73.6,340.8 69.4,345 76.3,345 80.6,340.8 	"/>
	<path class="st0" d="M85.9,326.7h-7.7c1.2,1.2,3.2,3.2,3.8,3.8C82.7,330,84.7,328,85.9,326.7"/>
	<polygon class="st0" points="94.8,305.9 90.6,301.7 83.7,301.7 87.8,305.9 	"/>
	<path class="st0" d="M62.6,330.6c-0.6,0.6-2.6,2.6-3.8,3.8h7.7C65.2,333.2,63.2,331.2,62.6,330.6"/>
	<polygon class="st0" points="63.3,329.5 67.3,333.5 67.3,333.4 67.4,333.4 67.4,326.5 63.3,322.4 	"/>
	<polygon class="st0" points="82.8,348.9 86.9,352.9 86.9,345.9 82.8,341.8 	"/>
	<polygon class="st0" points="71.1,321.4 64.1,321.4 68.2,325.6 75.2,325.6 	"/>
	<polygon class="st0" points="93.3,321.4 89.2,325.6 96,325.6 100.2,321.4 	"/>
	<path class="st0" d="M101.7,330.6c-0.6,0.6-2.6,2.6-3.8,3.8h7.7C104.3,333.2,102.3,331.2,101.7,330.6"/>
	<polygon class="st0" points="110.2,321.4 103.3,321.4 107.1,325.3 114.1,325.3 	"/>
	<polygon class="st0" points="102.4,329.5 106.4,333.5 106.4,326.4 102.4,322.4 	"/>
	<path class="st0" d="M108.5,335.4l1.9,1.9c0.4-0.6,0.7-1.2,1-1.9H108.5z"/>
	<polygon class="st0" points="83.6,340.8 87.7,344.9 94.7,344.9 90.6,340.8 	"/>
	<path class="st0" d="M91.8,340.3c0.6,0.6,2.6,2.6,3.8,3.8v-7.7C94.4,337.7,92.4,339.7,91.8,340.3"/>
	<polygon class="st0" points="101.2,322.3 97,326.4 97,333.6 101.2,329.4 	"/>
	<rect x="88.2" y="326.8" class="st0" width="7.6" height="7.6"/>
	<polygon class="st0" points="62,322.3 57.9,326.4 57.9,333.6 62,329.4 	"/>
	<path class="st0" d="M72.4,340.3c-0.6-0.6-2.6-2.6-3.8-3.8v7.7C69.8,342.9,71.8,340.9,72.4,340.3"/>
	<path class="st0" d="M72.3,320.9c0.6,0.6,2.6,2.6,3.8,3.8v-7.7C74.9,318.3,72.9,320.3,72.3,320.9"/>
	<polygon class="st0" points="94.6,335.7 87.6,335.7 83.7,339.5 90.8,339.5 	"/>
	<polygon class="st0" points="82.8,331.7 82.8,338.6 86.9,334.6 86.9,327.6 	"/>
	<rect x="68.6" y="307.1" class="st0" width="7.5" height="7.6"/>
	<polygon class="st0" points="86.9,306.8 82.8,302.7 82.8,309.8 86.9,313.8 	"/>
	<rect x="77.4" y="316" class="st0" width="9.5" height="9.5"/>
	<rect x="68.6" y="326.8" class="st0" width="7.5" height="7.6"/>
	<polygon class="st0" points="54.1,321.4 50,325.6 56.9,325.6 61.1,321.4 	"/>
	<polygon class="st0" points="80.6,339.5 76.8,335.7 69.6,335.7 73.5,339.5 	"/>
	<polygon class="st0" points="80.6,301.7 73.7,301.7 69.5,305.9 76.4,305.9 	"/>
	<polygon class="st0" points="80.6,300.4 76.7,296.5 69.6,296.5 73.5,300.4 	"/>
	<path class="st0" d="M72.4,301.1c-0.6-0.6-2.6-2.6-3.8-3.8v7.7C69.8,303.7,71.8,301.7,72.4,301.1"/>
	<polygon class="st0" points="63.3,319.2 67.4,315.2 67.4,308.2 63.3,312.3 	"/>
	<polygon class="st0" points="71.2,320.2 75.4,316 68.4,316 64.2,320.2 	"/>
	<path class="st0" d="M66.4,307.3h-7.7c1.2,1.2,3.2,3.2,3.8,3.8C63.2,310.6,65.2,308.6,66.4,307.3"/>
	<polygon class="st0" points="62,312.4 57.9,308.2 57.9,315.1 62,319.3 	"/>
	<path class="st0" d="M78.3,314.7H86c-1.2-1.2-3.2-3.2-3.8-3.8C81.5,311.5,79.5,313.5,78.3,314.7"/>
	<polygon class="st0" points="77.5,313.7 81.6,309.6 81.6,302.5 77.5,306.6 	"/>
	<path class="st0" d="M56.5,341.6"/>
	<path class="st0" d="M54.4,338.6L54.4,338.6L54.4,338.6z"/>
	<path class="st0" d="M110.4,337.3L110.4,337.3C110.4,337.3,110.4,337.4,110.4,337.3C110.4,337.4,110.4,337.3,110.4,337.3"/>
	<path class="st0" d="M61.3,346.4"/>
	<path class="st0" d="M95.7,350.8L95.7,350.8L95.7,350.8z"/>
	<path class="st0" d="M109.7,338.5L109.7,338.5L109.7,338.5z"/>
	<path class="st0" d="M53.7,337.5"/>
	<path class="st0" d="M68.6,350.9"/>
	<path class="st0" d="M78.5,353.6L78.5,353.6L78.5,353.6z"/>
	<path class="st0" d="M64.3,348.6L64.3,348.6L64.3,348.6z"/>
	<path class="st0" d="M97,350.2L97,350.2C97,350.2,97,350.2,97,350.2C97,350.2,97,350.2,97,350.2"/>
	<polygon class="st0" points="106.4,342.9 106.4,342.9 106.4,342.9 	"/>
	<path class="st0" d="M65.4,349.3"/>
	<path class="st0" d="M102.7,346.4"/>
	<ellipse transform="matrix(0.6961 -0.7179 0.7179 0.6961 -224.9438 139.8863)" class="st0" cx="52.8" cy="335.7" rx="0" ry="0"/>
	<path class="st0" d="M88.2,289.1C88.1,289.1,88.1,289.1,88.2,289.1C88.1,289.1,88.1,289.1,88.2,289.1"/>
	<path class="st0" d="M101.9,295.3L101.9,295.3L101.9,295.3z"/>
	<path class="st0" d="M111.4,335.4L111.4,335.4L111.4,335.4z"/>
	<polygon class="st0" points="86.9,288.8 86.9,288.8 86.9,288.9 	"/>
	<polyline class="st0" points="110.1,304.4 110.1,304.4 110.1,304.4 	"/>
	<path class="st0" d="M114,314.7L114,314.7c0,0.2,0.1,0.4,0.1,0.5C114.1,315.1,114.1,314.9,114,314.7"/>
	<path class="st0" d="M84.9,288.6L84.9,288.6L84.9,288.6z"/>
	<ellipse transform="matrix(0.8958 -0.4445 0.4445 0.8958 -123.4164 80.2261)" class="st0" cx="109.4" cy="303.3" rx="0" ry="0"/>
	<path class="st0" d="M107.7,301L107.7,301L107.7,301z"/>
	<path class="st0" d="M52.2,334.4L52.2,334.4L52.2,334.4z"/>
	<path class="st0" d="M56.6,300.7L56.6,300.7L56.6,300.7z"/>
	<path class="st0" d="M54.1,304.3L54.1,304.3L54.1,304.3z"/>
	<polyline class="st0" points="52.5,307.1 52.5,307.1 52.5,307.1 52.5,307.1 	"/>
	<path class="st0" d="M60.6,296.6L60.6,296.6L60.6,296.6z"/>
	<path class="st0" d="M77.7,288.8L77.7,288.8L77.7,288.8z"/>
	<path class="st0" d="M68.6,291.4C68.6,291.4,68.6,291.4,68.6,291.4C68.6,291.4,68.6,291.4,68.6,291.4"/>
	<ellipse transform="matrix(0.8379 -0.5458 0.5458 0.8379 -148.4411 84.1004)" class="st0" cx="67.4" cy="292" rx="0" ry="0"/>
	<path class="st0" d="M62.1,295.3L62.1,295.3L62.1,295.3z"/>
	<polygon class="st0" points="118.8,348.9 134.9,344.1 134.9,257.2 86.5,277.1 86.5,279.3 118.8,279.3 	"/>
	<polygon class="st0" points="118.8,361.1 118.7,361.1 43.7,361.1 20.4,382.9 139.7,382.9 118.8,361.1 	"/>
	<polygon class="st0" points="144.1,270.7 140.5,269.4 140.5,340.6 144.1,341.4 	"/>
	<polygon class="st0" points="151.6,273.4 148.1,272.1 148.1,342.3 151.6,343.1 	"/>
	<polygon class="st0" points="159.4,276.1 155.6,274.8 155.6,344.1 159.4,345 	"/>
	<polygon class="st0" points="166.7,278.7 163.1,277.4 163.1,345.8 166.7,346.7 	"/>
	<polygon class="st0" points="174.3,281.4 170.7,280.1 170.7,347.6 174.3,348.5 	"/>
	<polygon class="st0" points="181.7,284 178.2,282.7 178.2,349.3 181.7,350.2 	"/>
	<polygon class="st0" points="189.3,286.6 185.6,285.3 185.6,351.1 189.3,351.9 	"/>
</g>
</svg>
